<svg width="131" height="14" viewBox="0 0 131 14" fill="none" xmlns="http://www.w3.org/2000/svg">
<path d="M11.3 9.8C11.6867 9.8 11.94 9.74667 12.06 9.64C12.1933 9.52 12.2733 9.37333 12.3 9.2L13.26 3.7H11.7L12.28 0.5H17.64L16.02 9.7C15.8333 10.78 15.4333 11.6 14.82 12.16C14.22 12.72 13.4467 13 12.5 13H9.54L10.12 9.8H11.3ZM8.94 12.94L0.46 12.04H9.1L8.94 12.94ZM11.7 9.08L3.22 8.18H11.86L11.7 9.08ZM12.04 7.16L3.56 6.26H12.2L12.04 7.16ZM12.38 5.24L3.9 4.34H12.54L12.38 5.24ZM11.14 3.32L2.66 2.42H11.28L11.14 3.32ZM9.28 11L0.8 10.1H9.44L9.28 11ZM11.5 1.4L3.04 0.5H11.66L11.5 1.4ZM27.8481 13L27.7681 11.38H25.2481L24.6281 13H21.1681L25.6081 2.42H30.5681L31.3481 13H27.8481ZM27.7681 8.52V5.48H27.4881L26.3081 8.52H27.7681ZM20.5281 12.92L12.3281 12.04H20.9081L20.5281 12.92ZM21.3481 10.98L13.1481 10.1H21.7281L21.3481 10.98ZM22.1681 9.06L13.9681 8.18H22.5281L22.1681 9.06ZM22.9681 7.14L14.7881 6.26H23.3481L22.9681 7.14ZM23.7881 5.22L15.6081 4.34H24.1481L23.7881 5.22ZM24.5881 3.28L16.4281 2.42H24.9481L24.5881 3.28ZM41.0589 2.42V8.46H41.1389L43.4589 2.42H47.0789L42.7989 13H37.9389L37.3589 2.42H41.0589ZM28.8589 12.04H37.2189L37.2789 12.94L28.8589 12.04ZM28.7389 10.1H37.1189L37.1589 11L28.7389 10.1ZM28.2789 2.42H36.6989L36.7589 3.32L28.2789 2.42ZM28.3989 4.34H36.8189L36.8589 5.24L28.3989 4.34ZM28.5189 6.26H36.8989L36.9589 7.16L28.5189 6.26ZM28.6389 8.18H36.9989L37.0589 9.08L28.6389 8.18ZM56.5511 2.22C57.9911 2.22 59.0178 2.5 59.6311 3.06C60.2444 3.60667 60.5511 4.46667 60.5511 5.64C60.5511 6.21333 60.4778 6.90667 60.3311 7.72C59.9978 9.64 59.4111 11.04 58.5711 11.92C57.7311 12.8 56.4111 13.24 54.6111 13.24C53.1978 13.24 52.1911 12.9667 51.5911 12.42C50.9911 11.86 50.6911 11 50.6911 9.84C50.6911 9.24 50.7644 8.53333 50.9111 7.72C51.2444 5.8 51.8244 4.40667 52.6511 3.54C53.4778 2.66 54.7778 2.22 56.5511 2.22ZM55.1911 10.2C55.5778 10.2 55.8644 10.1533 56.0511 10.06C56.2511 9.96667 56.3844 9.76 56.4511 9.44L57.2111 5.26H55.9911C55.6178 5.26 55.3244 5.30667 55.1111 5.4C54.9111 5.49333 54.7911 5.69333 54.7511 6L54.0111 10.2H55.1911ZM50.2111 8.18C50.1578 8.59333 50.1244 8.87333 50.1111 9.02L42.2311 8.18H50.2111ZM50.5911 6.26L50.4111 7.1L42.5911 6.26H50.5911ZM50.0911 10.1C50.0911 10.3133 50.1178 10.5933 50.1711 10.94L42.3111 10.1H50.0911ZM51.2911 4.34C51.1311 4.68667 51.0178 4.95333 50.9511 5.14L43.3911 4.34H51.2911ZM50.5111 12.04C50.6711 12.36 50.8444 12.6067 51.0311 12.78L44.0511 12.04H50.5111ZM53.0311 2.42C52.7111 2.60667 52.4378 2.82667 52.2111 3.08L46.0711 2.42H53.0311ZM65.4069 3.18V3.32L58.9269 2.42H65.5069C65.4402 2.55333 65.4069 2.80667 65.4069 3.18ZM65.1269 7.14L58.8669 6.26H65.4669L65.1269 7.14ZM66.1469 4.56L65.8869 5.22L59.5669 4.34H65.8069C65.8735 4.42 65.9869 4.49333 66.1469 4.56ZM70.8269 2.64C70.9869 1.84 71.2335 1.28667 71.5669 0.98C71.9002 0.66 72.4335 0.5 73.1669 0.5C73.9002 0.5 74.3935 0.6 74.6469 0.8C74.9135 1 75.0469 1.33333 75.0469 1.8C75.0469 2.72 74.6735 3.76 73.9269 4.92L72.1669 7.64L70.5669 7.06L71.6869 4.18C71.0735 4.07333 70.7669 3.74 70.7669 3.18C70.7669 3.02 70.7869 2.84 70.8269 2.64ZM66.0669 2.64C66.2269 1.84 66.4735 1.28667 66.8069 0.98C67.1402 0.66 67.6735 0.5 68.4069 0.5C69.1402 0.5 69.6335 0.6 69.8869 0.8C70.1535 1 70.2869 1.33333 70.2869 1.8C70.2869 2.72 69.9135 3.76 69.1669 4.92L67.4069 7.64L65.8069 7.06L66.9269 4.18C66.3135 4.07333 66.0069 3.74 66.0069 3.18C66.0069 3.02 66.0269 2.84 66.0669 2.64ZM86.2127 13L86.9727 8.58H84.1127L83.3527 13H79.5527L81.7527 0.5H85.5527L84.7727 4.92H87.6327L88.4127 0.5H92.2127L90.0127 13H86.2127ZM78.9527 12.94L70.4727 12.04H79.1127L78.9527 12.94ZM79.6327 9.08L71.1527 8.18H79.7927L79.6327 9.08ZM79.9727 7.16L71.4927 6.26H80.1327L79.9727 7.16ZM80.3127 5.24L71.8327 4.34H80.4727L80.3127 5.24ZM80.6527 3.32L72.1727 2.42H80.7927L80.6527 3.32ZM79.2927 11L70.8127 10.1H79.4527L79.2927 11ZM80.9727 1.4L72.5127 0.5H81.1327L80.9727 1.4ZM96.2467 3.18V3.32L89.7667 2.42H96.3467C96.2801 2.55333 96.2467 2.80667 96.2467 3.18ZM95.9667 7.14L89.7067 6.26H96.3067L95.9667 7.14ZM96.9867 4.56L96.7267 5.22L90.4067 4.34H96.6467C96.7134 4.42 96.8267 4.49333 96.9867 4.56ZM101.667 2.64C101.827 1.84 102.073 1.28667 102.407 0.98C102.74 0.66 103.273 0.5 104.007 0.5C104.74 0.5 105.233 0.6 105.487 0.8C105.753 1 105.887 1.33333 105.887 1.8C105.887 2.72 105.513 3.76 104.767 4.92L103.007 7.64L101.407 7.06L102.527 4.18C101.913 4.07333 101.607 3.74 101.607 3.18C101.607 3.02 101.627 2.84 101.667 2.64ZM96.9067 2.64C97.0667 1.84 97.3134 1.28667 97.6467 0.98C97.9801 0.66 98.5134 0.5 99.2467 0.5C99.9801 0.5 100.473 0.6 100.727 0.8C100.993 1 101.127 1.33333 101.127 1.8C101.127 2.72 100.753 3.76 100.007 4.92L98.2467 7.64L96.6467 7.06L97.7667 4.18C97.1534 4.07333 96.8467 3.74 96.8467 3.18C96.8467 3.02 96.8667 2.84 96.9067 2.64ZM110.393 13L112.233 2.42H115.753L113.893 13H110.393ZM109.733 12.94L101.252 12.04H109.893L109.733 12.94ZM110.413 9.08L101.932 8.18H110.573L110.413 9.08ZM110.753 7.16L102.272 6.26H110.913L110.753 7.16ZM111.093 5.24L102.612 4.34H111.253L111.093 5.24ZM111.433 3.32L102.952 2.42H111.573L111.433 3.32ZM110.073 11L101.592 10.1H110.233L110.073 11ZM127.098 2.42C129.044 2.42 130.018 3.3 130.018 5.06C130.018 5.86 129.858 6.69333 129.538 7.56C129.218 8.41333 128.678 9.05333 127.918 9.48L129.058 13H125.318L124.558 9.92H124.078L123.538 13H120.178L122.018 2.42H127.098ZM126.358 5.88C126.358 5.86667 126.364 5.8 126.378 5.68C126.378 5.45333 126.024 5.34 125.318 5.34H124.878L124.558 7.18H125.198C125.811 7.18 126.158 6.98 126.238 6.58L126.358 5.88ZM119.518 12.94L111.038 12.04H119.678L119.518 12.94ZM120.198 9.08L111.718 8.18H120.358L120.198 9.08ZM120.538 7.16L112.058 6.26H120.698L120.538 7.16ZM120.878 5.24L112.398 4.34H121.038L120.878 5.24ZM121.218 3.32L112.738 2.42H121.358L121.218 3.32ZM119.858 11L111.378 10.1H120.018L119.858 11Z" fill="#F54242"/>
</svg>
